<svg width="58" height="58" viewBox="0 0 58 58" fill="none" xmlns="http://www.w3.org/2000/svg">
<circle cx="29" cy="29" r="29" fill="#0038FF"/>
<path d="M25.08 27.262H26.682C26.844 26.002 27.762 25.138 29.292 25.138C30.858 25.138 31.686 26.002 31.686 27.244C31.686 28.756 30.516 29.422 28.338 29.44H27.906V30.808H28.32C30.66 30.808 31.938 31.51 31.938 33.346C31.938 34.678 31.11 35.704 29.364 35.704C27.636 35.704 26.628 34.642 26.466 33.256H24.882C25.08 35.776 26.916 37.09 29.382 37.09C32.1 37.09 33.504 35.506 33.504 33.49C33.504 31.618 32.478 30.502 30.966 30.142V30.052C32.334 29.746 33.27 28.576 33.27 27.082C33.27 25.21 31.884 23.734 29.346 23.734C26.934 23.734 25.242 25.03 25.08 27.262Z" fill="white"/>
</svg>
