<svg width="34" height="34" viewBox="0 0 34 34" fill="none" xmlns="http://www.w3.org/2000/svg">
<g clip-path="url(#clip0_112_1076)">
<path d="M25.4957 25.5H8.50283L8.5 24.6174C8.5 22.8338 8.64167 21.8039 10.7497 21.3166C13.1353 20.7655 15.487 20.2739 14.3551 18.1872C11.0033 12.0063 13.4002 8.5 16.9986 8.5C20.5275 8.5 22.9854 11.8759 19.6421 18.1886C18.5442 20.2626 20.8123 20.7556 23.2475 21.318C25.3583 21.8053 25.4986 22.8367 25.4986 24.6231L25.4957 25.5ZM32.3113 22.3635C30.4838 21.9413 28.7838 21.5716 29.6069 20.0161C32.113 15.2816 30.2713 12.75 27.6236 12.75C25.8315 12.75 24.4389 13.9074 24.4389 16.0423C24.4389 21.5716 27.6519 18.5498 27.6207 25.5H33.9972L34 24.8441C34 23.5039 33.8952 22.729 32.3113 22.3635ZM0.00283333 25.5H6.37925C6.3495 18.5498 9.56108 21.573 9.56108 16.0423C9.56108 13.9074 8.1685 12.75 6.37642 12.75C3.72867 12.75 1.887 15.2816 4.3945 20.0161C5.21758 21.573 3.51758 21.9413 1.69008 22.3635C0.104833 22.729 0 23.5039 0 24.8441L0.00283333 25.5Z" fill="#FFD2DD"/>
</g>
<defs>
<clipPath id="clip0_112_1076">
<rect width="34" height="34" fill="white"/>
</clipPath>
</defs>
</svg>
