<svg width="31" height="33" viewBox="0 0 31 33" fill="none" xmlns="http://www.w3.org/2000/svg">
<path d="M19.375 16.4998C19.375 18.7781 17.6403 20.6248 15.5 20.6248C13.3597 20.6248 11.625 18.7781 11.625 16.4998C11.625 16.2261 11.6508 15.9594 11.6986 15.7009C13.6025 16.4448 15.4793 14.4881 14.8051 12.4408C15.0298 12.3995 15.2623 12.3748 15.5 12.3748C17.6403 12.3748 19.375 14.2228 19.375 16.4998ZM15.5194 6.87476C5.74275 6.87476 0 15.8824 0 15.8824C0 15.8824 6.24521 26.1248 15.5194 26.1248C25.5078 26.1248 31 15.8824 31 15.8824C31 15.8824 25.4575 6.87476 15.5194 6.87476ZM15.5 23.3748C11.9337 23.3748 9.04167 20.2975 9.04167 16.4998C9.04167 12.7034 11.9337 9.62476 15.5 9.62476C19.0676 9.62476 21.9583 12.7034 21.9583 16.4998C21.9583 20.2975 19.0676 23.3748 15.5 23.3748Z" fill="#FFD2DD"/>
</svg>
