<svg width="73" height="47" viewBox="0 0 73 47" fill="none" xmlns="http://www.w3.org/2000/svg">
<path d="M9.67648 1.66632C12.2601 1.66632 12.5665 1.67557 13.5874 1.72025C16.2097 1.83426 17.4346 3.02295 17.5539 5.50973C17.6007 6.48425 17.6096 6.77699 17.6096 9.24528C17.6096 11.7143 17.5999 12.0063 17.5539 12.9808C17.4338 15.4653 16.2121 16.6563 13.5874 16.7703C12.5665 16.815 12.2617 16.8242 9.67648 16.8242C7.09286 16.8242 6.78644 16.815 5.76638 16.7703C3.1376 16.6555 1.91917 15.4614 1.79983 12.9801C1.75306 12.0055 1.74338 11.7136 1.74338 9.24451C1.74338 6.77622 1.75386 6.48425 1.79983 5.50896C1.91998 3.02295 3.14163 1.83349 5.76638 1.71948C6.78725 1.67557 7.09286 1.66632 9.67648 1.66632V1.66632ZM9.67648 0C7.04851 0 6.71951 0.0107853 5.68735 0.055467C2.17318 0.209542 0.22014 2.07231 0.0588653 5.43269C0.0112892 6.41954 0 6.73385 0 9.24451C0 11.7552 0.0112892 12.0702 0.0580589 13.0563C0.219334 16.4136 2.16915 18.2795 5.68655 18.4335C6.71951 18.4782 7.04851 18.489 9.67648 18.489C12.3045 18.489 12.6343 18.4782 13.6664 18.4335C17.1774 18.2795 19.1352 16.4167 19.2941 13.0563C19.3417 12.0702 19.353 11.7552 19.353 9.24451C19.353 6.73385 19.3417 6.41954 19.2949 5.43346C19.1369 2.07924 17.1846 0.210313 13.6672 0.0562374C12.6343 0.0107853 12.3045 0 9.67648 0V0ZM9.67648 4.49745C6.93239 4.49745 4.70761 6.62292 4.70761 9.24451C4.70761 11.8661 6.93239 13.9923 9.67648 13.9923C12.4206 13.9923 14.6454 11.8669 14.6454 9.24451C14.6454 6.62292 12.4206 4.49745 9.67648 4.49745ZM9.67648 12.326C7.8952 12.326 6.45099 10.947 6.45099 9.24451C6.45099 7.54275 7.8952 6.163 9.67648 6.163C11.4578 6.163 12.902 7.54275 12.902 9.24451C12.902 10.947 11.4578 12.326 9.67648 12.326ZM14.8421 3.20091C14.2002 3.20091 13.6801 3.6978 13.6801 4.31025C13.6801 4.9227 14.2002 5.41959 14.8421 5.41959C15.4832 5.41959 16.0025 4.9227 16.0025 4.31025C16.0025 3.6978 15.4832 3.20091 14.8421 3.20091Z" fill="#FFD2DD"/>
<g clip-path="url(#clip0_440_702)">
<path fill-rule="evenodd" clip-rule="evenodd" d="M34.5588 0C29.215 0 24.8823 4.33183 24.8823 9.67647C24.8823 13.7761 27.4329 17.2773 31.0325 18.6869C30.9479 17.9216 30.8713 16.7476 31.0664 15.9122C31.2422 15.1566 32.201 11.1021 32.201 11.1021C32.201 11.1021 31.9115 10.5224 31.9115 9.66518C31.9115 8.32015 32.6912 7.31541 33.6621 7.31541C34.487 7.31541 34.8862 7.93551 34.8862 8.67818C34.8862 9.50794 34.358 10.7489 34.0846 11.8996C33.8564 12.8624 34.5677 13.6487 35.5176 13.6487C37.2376 13.6487 38.5592 11.8351 38.5592 9.21764C38.5592 6.90094 36.8949 5.28093 34.5177 5.28093C31.7647 5.28093 30.1487 7.34605 30.1487 9.47972C30.1487 10.3111 30.4689 11.2037 30.8688 11.6876C30.9479 11.7835 30.9591 11.8682 30.9358 11.9658L30.6672 13.0624C30.6245 13.2398 30.5269 13.2777 30.3431 13.1923C29.1343 12.6294 28.3788 10.8626 28.3788 9.44343C28.3788 6.39131 30.5963 3.58755 34.7725 3.58755C38.1294 3.58755 40.738 5.98006 40.738 9.17652C40.738 12.5117 38.6358 15.1953 35.7167 15.1953C34.7362 15.1953 33.8145 14.6865 33.4992 14.0841L32.8961 16.3847C32.6775 17.2257 32.0881 18.2797 31.6929 18.9215C32.5993 19.2013 33.5613 19.3529 34.5588 19.3529C39.9026 19.3529 44.2353 15.0203 44.2353 9.67647C44.2353 4.33183 39.9026 0 34.5588 0V0Z" fill="#FFD2DD"/>
</g>
<g clip-path="url(#clip1_440_702)">
<path d="M68.0491 0H50.8331C50.2428 0 49.7646 0.478179 49.7646 1.06844V18.2853C49.7646 18.8748 50.2428 19.3529 50.8331 19.3529H60.1023V11.8585H57.58V8.93783H60.1023V6.78401C60.1023 4.28426 61.6288 2.9231 63.8592 2.9231C64.9277 2.9231 65.8453 3.00293 66.113 3.03841V5.65106L64.5664 5.65187C63.3536 5.65187 63.119 6.22842 63.119 7.0735V8.93864H66.0114L65.6349 11.8593H63.119V19.3529H68.0508C68.6394 19.3529 69.1176 18.8748 69.1176 18.2845V1.06844C69.1176 0.478179 68.6394 0 68.0491 0V0Z" fill="#FFD2DD"/>
</g>
<path d="M64.9081 37.938H61.2504V41.6924H58.6958V37.938H55.0381V35.5769H58.6958V31.8224H61.2504V35.5769H64.9081V37.938Z" fill="#FFD2DD"/>
<g clip-path="url(#clip2_440_702)">
<path d="M4.01574 28.6262C4.01574 29.7398 3.12066 30.6422 2.01593 30.6422C0.911201 30.6422 0.0161275 29.7398 0.0161275 28.6262C0.0161275 27.5134 0.911201 26.6103 2.01593 26.6103C3.12066 26.6103 4.01574 27.5134 4.01574 28.6262ZM4.03186 32.2549H0V45.1569H4.03186V32.2549ZM10.4683 32.2549H6.46227V45.1569H10.4691V38.3841C10.4691 34.6184 15.3308 34.3103 15.3308 38.3841V45.1569H19.3529V36.9875C19.3529 30.6333 12.1585 30.8647 10.4683 33.9926V32.2549Z" fill="#FFD2DD"/>
</g>
<g clip-path="url(#clip3_440_702)">
<path d="M44.2353 31.3217C43.5232 31.6378 42.758 31.8507 41.9548 31.9466C42.7749 31.4555 43.4047 30.6774 43.7006 29.7501C42.9338 30.2049 42.0839 30.5355 41.1791 30.7137C40.4558 29.942 39.4228 29.4598 38.281 29.4598C35.7176 29.4598 33.8339 31.8515 34.4128 34.3343C31.114 34.169 28.1885 32.5885 26.2298 30.1863C25.1896 31.9708 25.6903 34.3053 27.4579 35.4874C26.8079 35.4664 26.1951 35.2882 25.6605 34.9907C25.6169 36.83 26.9353 38.5508 28.8448 38.9338C28.286 39.0854 27.674 39.1209 27.0515 39.0016C27.5563 40.5788 29.0222 41.7263 30.7608 41.7586C29.0916 43.0673 26.9886 43.6519 24.8823 43.4036C26.6394 44.5301 28.7271 45.1873 30.9688 45.1873C38.3407 45.1873 42.5056 38.9613 42.254 33.3771C43.0297 32.8167 43.7031 32.1176 44.2353 31.3217V31.3217Z" fill="#FFD2DD"/>
</g>
<defs>
<clipPath id="clip0_440_702">
<rect width="19.3529" height="19.3529" fill="white" transform="translate(24.8823)"/>
</clipPath>
<clipPath id="clip1_440_702">
<rect width="19.3529" height="19.3529" fill="white" transform="translate(49.7646)"/>
</clipPath>
<clipPath id="clip2_440_702">
<rect width="19.3529" height="19.3529" fill="white" transform="translate(0 25.804)"/>
</clipPath>
<clipPath id="clip3_440_702">
<rect width="19.3529" height="19.3529" fill="white" transform="translate(24.8823 27.6471)"/>
</clipPath>
</defs>
</svg>
