<svg width="31" height="31" viewBox="0 0 31 31" fill="none" xmlns="http://www.w3.org/2000/svg">
<path d="M6.45768 25.8333V28.4167H3.87435V25.8333H6.45768ZM9.04102 23.25H1.29102V31H9.04102V23.25ZM16.791 21.9583V28.4167H14.2077V21.9583H16.791ZM19.3743 19.375H11.6243V31H19.3743V19.375ZM27.1243 16.7917V28.4167H24.541V16.7917H27.1243ZM29.7077 14.2083H21.9577V31H29.7077V14.2083ZM29.7077 0L21.9577 1.57712L24.1742 3.78329L15.3263 12.4801L11.45 8.6025L1.32202 18.6736L3.14327 20.5052L11.4448 12.2515L15.3082 16.1174L26.0032 5.60712L28.1564 7.75129L29.7077 0V0Z" fill="#FFD2DD"/>
</svg>
