<svg width="31" height="31" viewBox="0 0 31 31" fill="none" xmlns="http://www.w3.org/2000/svg">
<g clip-path="url(#clip0_80_198)">
<path d="M5.63636 25.8333V28.4167H2.81818V25.8333H5.63636ZM8.45455 23.25H0V31H8.45455V23.25ZM16.9091 21.9583V28.4167H14.0909V21.9583H16.9091ZM19.7273 19.375H11.2727V31H19.7273V19.375ZM28.1818 16.7917V28.4167H25.3636V16.7917H28.1818ZM31 14.2083H22.5455V31H31V14.2083ZM0.0338182 20.5052L8.48836 18.9281L6.07036 16.7219L11.9646 11.4158L16.1933 15.2933L31 1.83158L29.0132 0L16.1989 11.6444L11.9843 7.77842L4.07509 14.8981L1.72614 12.7539L0.0338182 20.5052V20.5052Z" fill="#FF3257"/>
</g>
<defs>
<clipPath id="clip0_80_198">
<rect width="31" height="31" fill="white"/>
</clipPath>
</defs>
</svg>
