<svg width="31" height="32" viewBox="0 0 31 32" fill="none" xmlns="http://www.w3.org/2000/svg">
<path d="M15.5 3.65161C19.6385 3.65161 20.1293 3.66709 21.7646 3.74188C25.9651 3.93274 27.9271 5.92252 28.1183 10.0852C28.1932 11.7165 28.2074 12.2065 28.2074 16.3383C28.2074 20.4713 28.1919 20.96 28.1183 22.5913C27.9258 26.7501 25.969 28.7438 21.7646 28.9346C20.1293 29.0094 19.6411 29.0249 15.5 29.0249C11.3615 29.0249 10.8707 29.0094 9.23671 28.9346C5.02587 28.7425 3.07417 26.7437 2.883 22.59C2.80808 20.9587 2.79258 20.47 2.79258 16.337C2.79258 12.2052 2.80938 11.7165 2.883 10.0839C3.07546 5.92252 5.03233 3.93145 9.23671 3.74059C10.872 3.66709 11.3615 3.65161 15.5 3.65161V3.65161ZM15.5 0.862305C11.2905 0.862305 10.7635 0.880358 9.11012 0.955153C3.48104 1.21306 0.352625 4.33121 0.0942917 9.95625C0.0180833 11.6082 0 12.1343 0 16.337C0 20.5396 0.0180833 21.0671 0.093 22.7177C0.351333 28.3376 3.47458 31.4609 9.10883 31.7188C10.7635 31.7936 11.2905 31.8116 15.5 31.8116C19.7095 31.8116 20.2378 31.7936 21.8912 31.7188C27.5151 31.4609 30.6512 28.3427 30.9057 22.7177C30.9819 21.0671 31 20.5396 31 16.337C31 12.1343 30.9819 11.6082 30.907 9.95754C30.6538 4.34282 27.5267 1.21435 21.8925 0.956442C20.2378 0.880358 19.7095 0.862305 15.5 0.862305V0.862305ZM15.5 8.39073C11.1045 8.39073 7.54075 11.9486 7.54075 16.337C7.54075 20.7253 11.1045 24.2845 15.5 24.2845C19.8955 24.2845 23.4593 20.7266 23.4593 16.337C23.4593 11.9486 19.8955 8.39073 15.5 8.39073ZM15.5 21.4952C12.6467 21.4952 10.3333 19.1869 10.3333 16.337C10.3333 13.4883 12.6467 11.1788 15.5 11.1788C18.3533 11.1788 20.6667 13.4883 20.6667 16.337C20.6667 19.1869 18.3533 21.4952 15.5 21.4952ZM23.7744 6.22041C22.7462 6.22041 21.9131 7.05217 21.9131 8.07737C21.9131 9.10257 22.7462 9.93433 23.7744 9.93433C24.8013 9.93433 25.6331 9.10257 25.6331 8.07737C25.6331 7.05217 24.8013 6.22041 23.7744 6.22041Z" fill="#FF3257"/>
</svg>
