<svg width="31" height="29" viewBox="0 0 31 29" fill="none" xmlns="http://www.w3.org/2000/svg">
<path fill-rule="evenodd" clip-rule="evenodd" d="M18.1647 12.0167C18.1647 13.4839 18.2048 14.7034 17.3477 16.0075C16.6537 17.0687 15.5491 17.7201 14.3257 17.7201C12.6474 17.7201 11.6686 16.6197 11.6686 14.9905C11.6686 11.7844 15.0072 11.2009 18.1661 11.2009V12.0167H18.1647ZM22.5692 21.1929C22.2802 21.418 21.8613 21.4323 21.5392 21.2811C20.0849 20.2426 19.8278 19.7614 19.0315 18.7729C16.6343 20.8773 14.9367 21.5085 11.8303 21.5085C8.15306 21.5085 5.29002 19.5542 5.29002 15.6431C5.29002 12.5883 7.213 10.5113 9.94885 9.49305C12.3197 8.59508 15.6307 8.43192 18.1633 8.18896V7.70067C18.1633 6.80389 18.2463 5.74514 17.6338 4.96864C17.1016 4.27908 16.08 3.99206 15.18 3.99206C13.5142 3.99206 12.0322 4.72807 11.6686 6.25129C11.594 6.59071 11.3078 6.92656 10.9096 6.94442L6.67799 6.54783C6.31994 6.48114 5.92041 6.23104 6.02548 5.76181C6.99872 1.33624 11.6382 0 15.7938 0C17.9186 0 20.6973 0.488289 22.3715 1.87455C24.4977 3.58475 24.2958 5.86661 24.2958 8.35093V14.214C24.2958 15.9778 25.1474 16.7507 25.9437 17.7023C26.2257 18.0441 26.2852 18.4526 25.9299 18.7015C25.0354 19.3458 23.4498 20.532 22.5802 21.2013L22.5692 21.1929V21.1929ZM27.4893 23.5605C23.6903 25.3136 19.561 26.158 15.8035 26.158C10.2364 26.158 4.84487 24.499 0.484652 21.7443C0.101716 21.5038 -0.180302 21.9277 0.137659 22.2398C4.1813 26.2009 9.51891 28.5828 15.4496 28.5828C19.6812 28.5828 24.5931 27.137 27.9828 24.4216C28.5441 23.9726 28.063 23.2961 27.4893 23.5605V23.5605ZM28.4155 26.1997C28.2897 26.47 28.5593 26.5808 28.8441 26.3747C30.6951 25.0409 31.1735 22.2469 30.7947 21.8444C30.4187 21.4442 27.1837 21.0988 25.2096 22.2934C24.9055 22.4768 24.958 22.7304 25.2953 22.6947C26.4082 22.5804 28.8828 22.3231 29.3224 22.8114C29.7634 23.2997 28.8316 25.3053 28.4155 26.1997V26.1997Z" fill="#FFD2DD"/>
</svg>
