<svg width="29" height="29" viewBox="0 0 29 29" fill="none" xmlns="http://www.w3.org/2000/svg">
<path fill-rule="evenodd" clip-rule="evenodd" d="M16.972 12.3078C16.972 13.7428 17.0094 14.9355 16.2086 16.2109C15.5602 17.2487 14.5281 17.8858 13.385 17.8858C11.8169 17.8858 10.9024 16.8096 10.9024 15.2162C10.9024 12.0807 14.0218 11.5099 16.9732 11.5099V12.3078H16.972ZM21.0872 21.2822C20.8172 21.5024 20.4259 21.5163 20.1249 21.3684C18.7661 20.3527 18.5258 19.8822 17.7818 18.9154C15.5421 20.9736 13.9559 21.5909 11.0535 21.5909C7.6177 21.5909 4.94266 19.6795 4.94266 15.8545C4.94266 12.8669 6.73937 10.8355 9.29558 9.83968C11.5108 8.96145 14.6043 8.80188 16.9707 8.56427V8.08672C16.9707 7.20966 17.0482 6.17419 16.476 5.41477C15.9787 4.74038 15.0241 4.45968 14.1832 4.45968C12.6268 4.45968 11.2421 5.17949 10.9024 6.66922C10.8327 7.00117 10.5653 7.32963 10.1933 7.3471L6.2395 6.95924C5.90496 6.89401 5.53166 6.64941 5.62983 6.1905C6.53916 1.86227 10.874 0.55542 14.7567 0.55542C16.742 0.55542 19.3383 1.03297 20.9025 2.38874C22.8891 4.06133 22.7005 6.293 22.7005 8.72268V14.4568C22.7005 16.1818 23.4962 16.9377 24.2402 17.8683C24.5037 18.2026 24.5592 18.6021 24.2273 18.8456C23.3915 19.4757 21.91 20.6358 21.0975 21.2904L21.0872 21.2822V21.2822ZM25.6842 23.5978C22.1347 25.3123 18.2765 26.1381 14.7658 26.1381C9.56425 26.1381 4.52675 24.5156 0.452829 21.8215C0.0950371 21.5862 -0.168463 22.0009 0.12862 22.306C3.90675 26.18 8.89387 28.5095 14.4351 28.5095C18.3889 28.5095 22.9782 27.0955 26.1454 24.4399C26.6698 24.0008 26.2203 23.3392 25.6842 23.5978V23.5978ZM26.5497 26.1788C26.4321 26.4432 26.684 26.5516 26.9501 26.3501C28.6796 25.0455 29.1265 22.313 28.7726 21.9193C28.4213 21.528 25.3988 21.1902 23.5543 22.3585C23.2701 22.5378 23.3192 22.7859 23.6344 22.751C24.6742 22.6392 26.9862 22.3876 27.397 22.8651C27.809 23.3427 26.9385 25.3041 26.5497 26.1788V26.1788Z" fill="#FF3257"/>
</svg>
