<svg id="Ebene_1" data-name="Ebene 1" xmlns="http://www.w3.org/2000/svg" viewBox="0 0 64.75 20.9"><defs><style>.cls-1{fill:#dd9036;fill-rule:evenodd;}</style></defs><path class="cls-1" d="M699.53,389.88c-5.14,3.79-12.59,5.81-19,5.81a34.38,34.38,0,0,1-23.22-8.86c-.48-.43,0-1,.52-.69a46.74,46.74,0,0,0,23.24,6.16,46.26,46.26,0,0,0,17.72-3.62C699.65,388.31,700.38,389.25,699.53,389.88Z" transform="translate(-648.25 -374.79)"/><path class="cls-1" d="M701.67,387.44c-.66-.85-4.35-.4-6-.2-.5.06-.58-.38-.13-.7,2.94-2.07,7.76-1.47,8.32-.78s-.14,5.53-2.9,7.84c-.43.36-.83.17-.64-.3.62-1.55,2-5,1.35-5.86Z" transform="translate(-648.25 -374.79)"/><path d="M648.25,375.15h.82v8.32h-.82Z" transform="translate(-648.25 -374.79)"/><path d="M651.18,377.48c.23-.06.53-.14.91-.22a7,7,0,0,1,1.44-.12,2,2,0,0,1,1.71.69,1.92,1.92,0,0,1,.23-.16,2.9,2.9,0,0,1,.44-.24,2.82,2.82,0,0,1,.62-.2,3.1,3.1,0,0,1,.78-.09,2.69,2.69,0,0,1,1.15.21,1.64,1.64,0,0,1,.68.59,2.45,2.45,0,0,1,.32.91,6.84,6.84,0,0,1,.08,1.15v3.47h-.78v-3.22a8.28,8.28,0,0,0,0-1.06,2,2,0,0,0-.22-.74A1,1,0,0,0,658,378a1.75,1.75,0,0,0-.78-.15,2.59,2.59,0,0,0-.65.07,2.56,2.56,0,0,0-.51.16,2.36,2.36,0,0,0-.36.19l-.19.15a4,4,0,0,1,.16.7,7.08,7.08,0,0,1,0,.82v3.53H655v-3.22c0-.41,0-.76-.05-1.06a2,2,0,0,0-.22-.74,1.1,1.1,0,0,0-.48-.45,1.83,1.83,0,0,0-.81-.15,6.41,6.41,0,0,0-.95.06,2.61,2.61,0,0,0-.5.11v5.45h-.78Z" transform="translate(-648.25 -374.79)"/><path d="M662.32,385.69h-.78v-8.21a6.42,6.42,0,0,1,.88-.23,7.35,7.35,0,0,1,1.37-.11,3.26,3.26,0,0,1,1.24.23,2.46,2.46,0,0,1,1,.64,2.93,2.93,0,0,1,.63,1,3.82,3.82,0,0,1,.22,1.35,4.19,4.19,0,0,1-.19,1.31,2.93,2.93,0,0,1-.54,1,2.61,2.61,0,0,1-.88.66,2.86,2.86,0,0,1-1.2.24,3.06,3.06,0,0,1-1.06-.17,2.93,2.93,0,0,1-.65-.33Zm0-3.34a1.58,1.58,0,0,0,.27.18,1.59,1.59,0,0,0,.37.18,3.23,3.23,0,0,0,.47.14,2.32,2.32,0,0,0,.53,0,2.18,2.18,0,0,0,1-.19,1.85,1.85,0,0,0,.63-.54,2.28,2.28,0,0,0,.34-.81,3.87,3.87,0,0,0,.11-1,2.62,2.62,0,0,0-.61-1.87,2.11,2.11,0,0,0-1.62-.66,5.85,5.85,0,0,0-.93.06,2.79,2.79,0,0,0-.53.11Z" transform="translate(-648.25 -374.79)"/><path d="M670.64,377.14a4.23,4.23,0,0,1,.73.06,2,2,0,0,1,.47.12l-.15.68a1.61,1.61,0,0,0-.39-.11,5.35,5.35,0,0,0-.78-.05,3.63,3.63,0,0,0-.81.07,3,3,0,0,0-.4.12v5.44h-.78v-5.92a5.4,5.4,0,0,1,.83-.27A5.21,5.21,0,0,1,670.64,377.14Z" transform="translate(-648.25 -374.79)"/><path d="M678.31,380.37a4,4,0,0,1-.21,1.33,2.85,2.85,0,0,1-.59,1,2.76,2.76,0,0,1-.89.66,2.94,2.94,0,0,1-2.28,0,2.76,2.76,0,0,1-.89-.66,2.85,2.85,0,0,1-.59-1,4.32,4.32,0,0,1,0-2.66,3,3,0,0,1,.59-1,2.76,2.76,0,0,1,.89-.66,2.94,2.94,0,0,1,2.28,0,2.76,2.76,0,0,1,.89.66,3,3,0,0,1,.59,1A4,4,0,0,1,678.31,380.37Zm-.83,0a2.93,2.93,0,0,0-.54-1.85,1.89,1.89,0,0,0-2.92,0,3.44,3.44,0,0,0,0,3.7,1.91,1.91,0,0,0,2.92,0A2.91,2.91,0,0,0,677.48,380.37Z" transform="translate(-648.25 -374.79)"/><path d="M681.88,382.63c.17-.35.34-.74.52-1.18s.35-.91.51-1.38.32-1,.46-1.44.26-.94.35-1.37h.78q-.21.86-.48,1.68c-.18.56-.36,1.1-.56,1.62s-.4,1-.62,1.53-.42,1-.62,1.38h-.73c-.21-.43-.42-.89-.62-1.38s-.42-1-.61-1.53-.39-1.06-.57-1.62-.33-1.11-.48-1.68H680c.1.43.21.88.35,1.37s.3,1,.46,1.44.34.93.51,1.38S681.71,382.28,681.88,382.63Z" transform="translate(-648.25 -374.79)"/><path d="M685.39,380.36a3.84,3.84,0,0,1,.24-1.42,3.11,3.11,0,0,1,.61-1,2.4,2.4,0,0,1,.86-.6,2.7,2.7,0,0,1,1-.2,2.36,2.36,0,0,1,1.82.74,3.34,3.34,0,0,1,.68,2.3,1.28,1.28,0,0,1,0,.19c0,.06,0,.12,0,.18h-4.36a2.73,2.73,0,0,0,.56,1.75,2.12,2.12,0,0,0,1.68.61,3.39,3.39,0,0,0,1-.12,5.21,5.21,0,0,0,.54-.2l.15.67a4.3,4.3,0,0,1-.63.23,3.92,3.92,0,0,1-1.09.13,3.6,3.6,0,0,1-1.39-.24,2.44,2.44,0,0,1-.95-.67,2.61,2.61,0,0,1-.54-1A4.81,4.81,0,0,1,685.39,380.36Zm4.41-.49a2.47,2.47,0,0,0-.46-1.51,1.48,1.48,0,0,0-1.22-.54,1.65,1.65,0,0,0-.75.16,1.94,1.94,0,0,0-1,1.11,2.59,2.59,0,0,0-.17.78Z" transform="translate(-648.25 -374.79)"/><path d="M698,383.47c-.16-.41-.3-.8-.44-1.18l-.38-1.1h-4.06c-.14.36-.28.73-.41,1.1s-.27.77-.42,1.18h-.85c.31-.87.61-1.67.89-2.42s.56-1.46.83-2.12.54-1.31.8-1.93.55-1.23.84-1.85h.72c.3.62.57,1.23.84,1.85s.53,1.26.8,1.92.54,1.38.82,2.13.59,1.55.92,2.42Zm-2.86-7.38c-.3.69-.59,1.39-.88,2.1s-.58,1.48-.89,2.3h3.55c-.3-.82-.6-1.59-.89-2.3S695.43,376.78,695.13,376.09Z" transform="translate(-648.25 -374.79)"/><path d="M701.46,382.92a2.41,2.41,0,0,0,1.11-.23.76.76,0,0,0,.44-.75,1.14,1.14,0,0,0-.08-.43.79.79,0,0,0-.26-.32,2.24,2.24,0,0,0-.47-.28l-.73-.31-.66-.29a2.72,2.72,0,0,1-.55-.35,1.37,1.37,0,0,1-.38-.48,1.36,1.36,0,0,1-.15-.67,1.5,1.5,0,0,1,.57-1.22,2.41,2.41,0,0,1,1.57-.47,4.39,4.39,0,0,1,1,.11,3,3,0,0,1,.58.19l-.18.7a4.22,4.22,0,0,0-.49-.2,3.14,3.14,0,0,0-1-.12,2.07,2.07,0,0,0-.5.06,1.15,1.15,0,0,0-.41.17.86.86,0,0,0-.29.28.93.93,0,0,0,0,.86.94.94,0,0,0,.28.32,2.22,2.22,0,0,0,.46.26l.61.26.7.3a2.83,2.83,0,0,1,.58.36,1.67,1.67,0,0,1,.41.5,1.62,1.62,0,0,1,.15.74,1.44,1.44,0,0,1-.63,1.27,3,3,0,0,1-1.72.43,4.09,4.09,0,0,1-1.25-.14,4.43,4.43,0,0,1-.58-.21l.21-.7.16.07a1.82,1.82,0,0,0,.32.12,2.8,2.8,0,0,0,.48.12A4.23,4.23,0,0,0,701.46,382.92Z" transform="translate(-648.25 -374.79)"/><path d="M706.28,375.39a.58.58,0,0,1-.16.44.57.57,0,0,1-.41.16.56.56,0,0,1-.41-.16.59.59,0,0,1-.17-.44.57.57,0,0,1,.58-.6.62.62,0,0,1,.41.16A.6.6,0,0,1,706.28,375.39Zm-.18,8.08h-.78v-6.21h.78Z" transform="translate(-648.25 -374.79)"/><path d="M708.17,377.48c.23-.06.54-.14.93-.22a7.38,7.38,0,0,1,1.44-.12,2.9,2.9,0,0,1,1.18.21,1.78,1.78,0,0,1,.76.58,2.3,2.3,0,0,1,.4.91A5.23,5.23,0,0,1,713,380v3.47h-.78v-3.22a5.78,5.78,0,0,0-.09-1.11,1.84,1.84,0,0,0-.3-.75,1.13,1.13,0,0,0-.55-.41,2.36,2.36,0,0,0-.86-.13,6.5,6.5,0,0,0-.95.06,3,3,0,0,0-.52.11v5.45h-.78Z" transform="translate(-648.25 -374.79)"/></svg>