<svg width="31" height="31" viewBox="0 0 31 31" fill="none" xmlns="http://www.w3.org/2000/svg">
<path fill-rule="evenodd" clip-rule="evenodd" d="M18.1647 12.9782C18.1647 14.5629 18.2048 15.88 17.3477 17.2884C16.6537 18.4345 15.5491 19.138 14.3257 19.138C12.6474 19.138 11.6686 17.9495 11.6686 16.19C11.6686 12.7274 15.0072 12.0971 18.1661 12.0971V12.9782H18.1647ZM22.5692 22.8887C22.2802 23.1318 21.8613 23.1473 21.5392 22.9839C20.0849 21.8623 19.8278 21.3427 19.0315 20.2751C16.6343 22.5479 14.9367 23.2296 11.8303 23.2296C8.15306 23.2296 5.29002 21.1189 5.29002 16.8948C5.29002 13.5956 7.213 11.3524 9.94885 10.2527C12.3197 9.28283 15.6307 9.10661 18.1633 8.84422V8.31686C18.1633 7.34832 18.2463 6.20484 17.6338 5.36621C17.1016 4.62148 16.08 4.31149 15.18 4.31149C13.5142 4.31149 12.0322 5.10639 11.6686 6.7515C11.594 7.11808 11.3078 7.4808 10.9096 7.50009L6.67799 7.07177C6.31994 6.99974 5.92041 6.72963 6.02548 6.22285C6.99872 1.44317 11.6382 0 15.7938 0C17.9186 0 20.6973 0.52736 22.3715 2.02455C24.4977 3.8716 24.2958 6.33604 24.2958 9.01915V15.3513C24.2958 17.2563 25.1474 18.091 25.9437 19.1187C26.2257 19.4879 26.2852 19.9291 25.9299 20.1979C25.0354 20.8938 23.4498 22.1749 22.5802 22.8977L22.5692 22.8887V22.8887ZM27.4893 25.4458C23.6903 27.3391 19.561 28.2511 15.8035 28.2511C10.2364 28.2511 4.84487 26.4593 0.484652 23.4843C0.101716 23.2244 -0.180302 23.6823 0.137659 24.0193C4.1813 28.2974 9.51891 30.8699 15.4496 30.8699C19.6812 30.8699 24.5931 29.3084 27.9828 26.3757C28.5441 25.8908 28.063 25.1602 27.4893 25.4458V25.4458ZM28.4155 28.2961C28.2897 28.5881 28.5593 28.7077 28.8441 28.4852C30.6951 27.0446 31.1735 24.0271 30.7947 23.5923C30.4187 23.1601 27.1837 22.7871 25.2096 24.0772C24.9055 24.2753 24.958 24.5493 25.2953 24.5107C26.4082 24.3872 28.8828 24.1094 29.3224 24.6367C29.7634 25.1641 28.8316 27.3301 28.4155 28.2961V28.2961Z" fill="#FF3257"/>
</svg>
