<svg width="34" height="34" viewBox="0 0 34 34" fill="none" xmlns="http://www.w3.org/2000/svg">
<g clip-path="url(#clip0_112_947)">
<path d="M6.71461 27.728V30.4928H3.69837V27.728H6.71461ZM9.73084 24.9631H0.682129V33.2577H9.73084V24.9631ZM18.7796 23.5806V30.4928H15.7633V23.5806H18.7796ZM21.7958 20.8157H12.7471V33.2577H21.7958V20.8157ZM30.8445 18.0509V30.4928H27.8283V18.0509H30.8445ZM33.8608 15.286H24.812V33.2577H33.8608V15.286ZM0.718324 22.0254L9.76704 20.3374L7.17911 17.9762L13.4876 12.2971L18.0134 16.4472L33.8608 2.03941L31.7343 0.0791016L18.0195 12.5418L13.5087 8.40417L5.04361 16.0242L2.52957 13.7293L0.718324 22.0254V22.0254Z" fill="#FF3257"/>
</g>
<defs>
<clipPath id="clip0_112_947">
<rect width="33.1786" height="33.1786" fill="white" transform="translate(0.682129 0.0791016)"/>
</clipPath>
</defs>
</svg>
