<svg width="73" height="47" viewBox="0 0 73 47" fill="none" xmlns="http://www.w3.org/2000/svg">
<path d="M10.6765 1.79965C13.2601 1.79965 13.5665 1.80963 14.5874 1.85789C17.2097 1.98103 18.4346 3.26483 18.5539 5.95058C18.6007 7.00308 18.6096 7.31924 18.6096 9.98502C18.6096 12.6516 18.5999 12.967 18.5539 14.0195C18.4338 16.7027 17.2121 17.989 14.5874 18.1122C13.5665 18.1604 13.2617 18.1704 10.6765 18.1704C8.09286 18.1704 7.78644 18.1604 6.76638 18.1122C4.1376 17.9882 2.91917 16.6986 2.79983 14.0186C2.75306 12.9661 2.74338 12.6508 2.74338 9.98419C2.74338 7.31841 2.75386 7.00308 2.79983 5.94975C2.91998 3.26483 4.14163 1.9802 6.76638 1.85706C7.78725 1.80963 8.09286 1.79965 10.6765 1.79965ZM10.6765 0C8.04851 0 7.71951 0.0116482 6.68735 0.0599051C3.17318 0.226308 1.22014 2.23812 1.05887 5.86738C1.01129 6.93319 1 7.27265 1 9.98419C1 12.6957 1.01129 13.036 1.05806 14.101C1.21933 17.7269 3.16915 19.7421 6.68655 19.9085C7.71951 19.9567 8.04851 19.9684 10.6765 19.9684C13.3045 19.9684 13.6343 19.9567 14.6664 19.9085C18.1774 19.7421 20.1352 17.7303 20.2941 14.101C20.3417 13.036 20.353 12.6957 20.353 9.98419C20.353 7.27265 20.3417 6.93319 20.2949 5.86821C20.1369 2.24561 18.1846 0.22714 14.6672 0.0607372C13.6343 0.0116482 13.3045 0 10.6765 0V0ZM10.6765 4.85731C7.93239 4.85731 5.70761 7.15284 5.70761 9.98419C5.70761 12.8155 7.93239 15.1119 10.6765 15.1119C13.4206 15.1119 15.6454 12.8164 15.6454 9.98419C15.6454 7.15284 13.4206 4.85731 10.6765 4.85731ZM10.6765 13.3123C8.8952 13.3123 7.45099 11.8229 7.45099 9.98419C7.45099 8.14627 8.8952 6.65613 10.6765 6.65613C12.4578 6.65613 13.902 8.14627 13.902 9.98419C13.902 11.8229 12.4578 13.3123 10.6765 13.3123ZM15.8421 3.45703C15.2002 3.45703 14.6801 3.99368 14.6801 4.65513C14.6801 5.31658 15.2002 5.85323 15.8421 5.85323C16.4832 5.85323 17.0025 5.31658 17.0025 4.65513C17.0025 3.99368 16.4832 3.45703 15.8421 3.45703Z" fill="#FFD2DD"/>
<g clip-path="url(#clip0_165_564)">
<path fill-rule="evenodd" clip-rule="evenodd" d="M34.5588 0C29.215 0 24.8823 4.33183 24.8823 9.67647C24.8823 13.7761 27.4329 17.2773 31.0325 18.6869C30.9479 17.9216 30.8713 16.7476 31.0664 15.9122C31.2422 15.1566 32.201 11.1021 32.201 11.1021C32.201 11.1021 31.9115 10.5224 31.9115 9.66518C31.9115 8.32015 32.6912 7.31541 33.6621 7.31541C34.487 7.31541 34.8862 7.93551 34.8862 8.67818C34.8862 9.50794 34.358 10.7489 34.0846 11.8996C33.8564 12.8624 34.5677 13.6487 35.5176 13.6487C37.2376 13.6487 38.5592 11.8351 38.5592 9.21764C38.5592 6.90094 36.8949 5.28093 34.5177 5.28093C31.7647 5.28093 30.1487 7.34605 30.1487 9.47972C30.1487 10.3111 30.4689 11.2037 30.8688 11.6876C30.9479 11.7835 30.9591 11.8682 30.9358 11.9658L30.6672 13.0624C30.6245 13.2398 30.5269 13.2777 30.3431 13.1923C29.1343 12.6294 28.3788 10.8626 28.3788 9.44343C28.3788 6.39131 30.5963 3.58755 34.7725 3.58755C38.1294 3.58755 40.738 5.98006 40.738 9.17652C40.738 12.5117 38.6358 15.1953 35.7167 15.1953C34.7362 15.1953 33.8145 14.6865 33.4992 14.0841L32.8961 16.3847C32.6775 17.2257 32.0881 18.2797 31.6929 18.9215C32.5993 19.2013 33.5613 19.3529 34.5588 19.3529C39.9026 19.3529 44.2353 15.0203 44.2353 9.67647C44.2353 4.33183 39.9026 0 34.5588 0V0Z" fill="#FFD2DD"/>
</g>
<g clip-path="url(#clip1_165_564)">
<path d="M68.0491 0H50.8331C50.2428 0 49.7646 0.478179 49.7646 1.06844V18.2853C49.7646 18.8748 50.2428 19.3529 50.8331 19.3529H60.1023V11.8585H57.58V8.93783H60.1023V6.78401C60.1023 4.28426 61.6288 2.9231 63.8592 2.9231C64.9277 2.9231 65.8453 3.00293 66.113 3.03841V5.65106L64.5664 5.65187C63.3536 5.65187 63.119 6.22842 63.119 7.0735V8.93864H66.0114L65.6349 11.8593H63.119V19.3529H68.0508C68.6394 19.3529 69.1176 18.8748 69.1176 18.2845V1.06844C69.1176 0.478179 68.6394 0 68.0491 0V0Z" fill="#FFD2DD"/>
</g>
<path d="M64.9081 37.938H61.2504V41.6924H58.6958V37.938H55.0381V35.5769H58.6958V31.8224H61.2504V35.5769H64.9081V37.938Z" fill="#FFD2DD"/>
<g clip-path="url(#clip2_165_564)">
<path d="M4.01574 28.6262C4.01574 29.7398 3.12066 30.6422 2.01593 30.6422C0.911201 30.6422 0.0161275 29.7398 0.0161275 28.6262C0.0161275 27.5134 0.911201 26.6103 2.01593 26.6103C3.12066 26.6103 4.01574 27.5134 4.01574 28.6262ZM4.03186 32.2549H0V45.1569H4.03186V32.2549ZM10.4683 32.2549H6.46227V45.1569H10.4691V38.3841C10.4691 34.6184 15.3308 34.3103 15.3308 38.3841V45.1569H19.3529V36.9875C19.3529 30.6333 12.1585 30.8647 10.4683 33.9926V32.2549Z" fill="#FFD2DD"/>
</g>
<g clip-path="url(#clip3_165_564)">
<path d="M44.2353 31.3217C43.5232 31.6378 42.758 31.8507 41.9548 31.9466C42.7749 31.4555 43.4047 30.6774 43.7006 29.7501C42.9338 30.2049 42.0839 30.5355 41.1791 30.7137C40.4558 29.942 39.4228 29.4598 38.281 29.4598C35.7176 29.4598 33.8339 31.8515 34.4128 34.3343C31.114 34.169 28.1885 32.5885 26.2298 30.1863C25.1896 31.9708 25.6903 34.3053 27.4579 35.4874C26.8079 35.4664 26.1951 35.2882 25.6605 34.9907C25.6169 36.83 26.9353 38.5508 28.8448 38.9338C28.286 39.0854 27.674 39.1209 27.0515 39.0016C27.5563 40.5788 29.0222 41.7263 30.7608 41.7586C29.0916 43.0673 26.9886 43.6519 24.8823 43.4036C26.6394 44.5301 28.7271 45.1873 30.9688 45.1873C38.3407 45.1873 42.5056 38.9613 42.254 33.3771C43.0297 32.8167 43.7031 32.1176 44.2353 31.3217Z" fill="#FFD2DD"/>
</g>
<defs>
<clipPath id="clip0_165_564">
<rect width="19.3529" height="19.3529" fill="white" transform="translate(24.8823)"/>
</clipPath>
<clipPath id="clip1_165_564">
<rect width="19.3529" height="19.3529" fill="white" transform="translate(49.7646)"/>
</clipPath>
<clipPath id="clip2_165_564">
<rect width="19.3529" height="19.3529" fill="white" transform="translate(0 25.804)"/>
</clipPath>
<clipPath id="clip3_165_564">
<rect width="19.3529" height="19.3529" fill="white" transform="translate(24.8823 27.6471)"/>
</clipPath>
</defs>
</svg>
