<svg width="63" height="63" viewBox="0 0 63 63" fill="none" xmlns="http://www.w3.org/2000/svg">
<circle cx="31.0381" cy="31.1332" r="31.0381" fill="#FF3257"/>
<path d="M32.6134 39.911C31.6245 39.911 30.7447 39.7312 29.9741 39.3716C29.2035 39.012 28.5999 38.4918 28.1632 37.8111C27.7394 37.1304 27.5274 36.3213 27.5274 35.3837V35.037H29.5503V35.3452C29.5503 36.1929 29.8264 36.8671 30.3787 37.368C30.9438 37.8561 31.6887 38.1001 32.6134 38.1001C33.5381 38.1001 34.2573 37.8689 34.7711 37.4066C35.2848 36.9442 35.5417 36.3598 35.5417 35.6534V35.4801C35.5417 34.9792 35.4197 34.5746 35.1756 34.2664C34.9316 33.9581 34.6041 33.7334 34.1931 33.5921C33.7821 33.438 33.3198 33.3609 32.806 33.3609H30.3594V31.0298L35.0986 28.2364V27.9667H27.8549V26.1558H37.2948V28.8914L32.7675 31.5885V31.8582H33.5959C34.2766 31.8582 34.9188 31.9867 35.5224 32.2435C36.1261 32.5004 36.6141 32.8921 36.9866 33.4187C37.3719 33.9453 37.5645 34.6131 37.5645 35.4223V35.6534C37.5645 36.5139 37.359 37.2653 36.948 37.9074C36.537 38.5368 35.9591 39.0312 35.2142 39.3909C34.4693 39.7376 33.6023 39.911 32.6134 39.911Z" fill="white"/>
</svg>
