<svg width="63" height="63" viewBox="0 0 63 63" fill="none" xmlns="http://www.w3.org/2000/svg">
<circle cx="31.0381" cy="31.2886" r="31.0381" fill="#FF3257"/>
<path d="M27.6816 38.7263V37.2044C27.6816 36.2668 27.8421 35.4962 28.1632 34.8926C28.4843 34.2889 28.9402 33.8009 29.531 33.4284C30.1346 33.0431 30.8603 32.7221 31.7079 32.4652L32.8831 32.0992C33.4097 31.9322 33.8592 31.7267 34.2317 31.4827C34.617 31.2387 34.9124 30.9368 35.1178 30.5772C35.3233 30.2048 35.4261 29.7745 35.4261 29.2865V29.2094C35.4261 28.4516 35.1692 27.8609 34.6555 27.437C34.1418 27.0004 33.4675 26.782 32.6327 26.782C31.7722 26.782 31.0722 27.0132 30.5328 27.4756C30.0062 27.9379 29.7429 28.6186 29.7429 29.5176V29.8259H27.7394V29.5369C27.7394 28.5608 27.9513 27.7388 28.3751 27.071C28.7989 26.3903 29.3833 25.8701 30.1282 25.5105C30.8731 25.1509 31.7079 24.9711 32.6327 24.9711C33.5574 24.9711 34.3794 25.1445 35.0986 25.4913C35.8307 25.838 36.4022 26.3261 36.8132 26.9554C37.237 27.5847 37.4489 28.3232 37.4489 29.1709V29.3443C37.4489 30.2176 37.2755 30.9433 36.9288 31.5212C36.582 32.0992 36.1004 32.5744 35.4839 32.9468C34.8802 33.3193 34.1803 33.6339 33.384 33.8908L32.2474 34.2376C31.6437 34.4174 31.1557 34.6165 30.7832 34.8348C30.4236 35.0403 30.1539 35.2907 29.9741 35.5861C29.8071 35.8815 29.7236 36.2604 29.7236 36.7228V36.9154H37.3333V38.7263H27.6816Z" fill="white"/>
</svg>
