<svg width="32" height="32" viewBox="0 0 32 32" fill="none" xmlns="http://www.w3.org/2000/svg">
<path fill-rule="evenodd" clip-rule="evenodd" d="M8.23733 5.33333C7.01867 3.34267 4.312 1.33333 0 1.33333V0C5.348 0 8.55333 2.81333 9.752 5.33333H17.964L32 19.5L19.5 32L5.33333 17.892V9.56933L4.95733 9.39867C3.56667 8.764 1.98933 8.04533 0 8.04533V6.712C2.188 6.712 3.924 7.464 5.33333 8.104V5.33333H8.23733V5.33333ZM22.8293 17.4787C22.276 16.9253 21.676 16.656 20.992 16.656C20.2213 16.656 19.356 16.9773 18.0973 17.728C17.188 18.2747 16.6067 18.5067 16.156 18.5067C15.6747 18.5067 14.712 17.9627 14.8747 16.8827C14.944 16.4227 15.208 15.9533 15.6373 15.5227C16.5067 14.6547 17.696 14.392 18.672 15.3813L19.664 14.3893C19.0293 13.7547 18.2027 13.3333 17.316 13.3333C16.5613 13.3333 15.816 13.636 15.0987 14.236L14.264 13.4L13.3333 14.332L14.204 15.2013C13.4453 16.3027 13.0813 17.896 14.3053 19.1187C15.6533 20.4667 17.2227 19.84 18.856 18.8093C19.656 18.304 20.3 18.0587 20.8227 18.0587C21.608 18.0587 22.396 18.7227 22.26 19.736C22.1907 20.2507 21.9133 20.7533 21.432 21.232C20.8307 21.8333 20.2267 22.1373 19.636 22.1373C19.0787 22.1373 18.64 21.8813 18.2373 21.5213L17.252 22.5067C17.8693 23.1173 18.6947 23.5107 19.5653 23.5107C20.2907 23.5107 21.0147 23.2427 21.7147 22.7147L22.4347 23.432L23.364 22.5027L22.6707 21.808C23.6613 20.6133 24.2133 18.8627 22.8293 17.4787V17.4787ZM10.2893 8C10.2213 8.59333 10.0027 9.10667 9.636 9.48533C9.12 10.016 8.57333 10.2453 8 10.284C8.01067 11.5267 9.02133 12.5307 10.2653 12.5307C11.516 12.5307 12.5307 11.516 12.5307 10.2653C12.5307 9.02267 11.5293 8.012 10.2893 8V8Z" fill="#FFD2DD"/>
</svg>
