<svg width="29" height="33" viewBox="0 0 29 33" fill="none" xmlns="http://www.w3.org/2000/svg">
<path fill-rule="evenodd" clip-rule="evenodd" d="M16.972 13.654C16.972 15.3212 17.0094 16.7069 16.2086 18.1886C15.5602 19.3944 14.5281 20.1346 13.385 20.1346C11.8169 20.1346 10.9024 18.8842 10.9024 17.033C10.9024 13.3901 14.0218 12.727 16.9732 12.727V13.654H16.972ZM21.0872 24.0806C20.8172 24.3363 20.4259 24.3526 20.1249 24.1807C18.7661 23.0007 18.5258 22.454 17.7818 21.3308C15.5421 23.722 13.9559 24.4392 11.0535 24.4392C7.61771 24.4392 4.94266 22.2185 4.94266 17.7746C4.94266 14.3035 6.73937 11.9435 9.29558 10.7865C11.5108 9.76619 14.6043 9.5808 16.9707 9.30474V8.74992C16.9707 7.73095 17.0482 6.52794 16.476 5.64564C15.9787 4.86212 15.0241 4.536 14.1832 4.536C12.6268 4.536 11.2421 5.37229 10.9024 7.10305C10.8327 7.48872 10.5653 7.87033 10.1933 7.89063L6.2395 7.44001C5.90496 7.36423 5.53166 7.08005 5.62983 6.54688C6.53916 1.51831 10.874 0 14.7567 0C16.742 0 19.3383 0.55482 20.9025 2.12997C22.8891 4.07319 22.7005 6.66596 22.7005 9.48878V16.1507C22.7005 18.1548 23.4962 19.033 24.2402 20.1143C24.5037 20.5026 24.5592 20.9668 24.2273 21.2496C23.3915 21.9817 21.91 23.3295 21.0975 24.09L21.0872 24.0806ZM25.6842 26.7708C22.1347 28.7627 18.2765 29.7221 14.7658 29.7221C9.56425 29.7221 4.52675 27.8371 0.452829 24.7071C0.0950371 24.4337 -0.168463 24.9155 0.12862 25.27C3.90675 29.7709 8.89387 32.4773 14.4351 32.4773C18.3889 32.4773 22.9782 30.8345 26.1454 27.7491C26.6698 27.239 26.2203 26.4703 25.6842 26.7708ZM26.5497 29.7695C26.4321 30.0767 26.684 30.2025 26.9501 29.9684C28.6796 28.4528 29.1265 25.2782 28.7726 24.8208C28.4213 24.3661 25.3988 23.9737 23.5543 25.3309C23.2701 25.5393 23.3192 25.8276 23.6344 25.787C24.6742 25.6571 26.9862 25.3648 27.397 25.9196C27.809 26.4744 26.9385 28.7532 26.5497 29.7695Z" fill="#FFD2DD"/>
</svg>
